<svg xmlns="http://www.w3.org/2000/svg" viewBox="0 0 515 412.42"><defs><style>.cls-1{fill:#d8d8d8;}.cls-2{opacity:0.5;}.cls-3,.cls-6,.cls-7{fill:none;stroke-linecap:round;}.cls-3,.cls-5,.cls-6{stroke:#0685cc;}.cls-3,.cls-5,.cls-6,.cls-7{stroke-linejoin:round;stroke-width:8px;}.cls-4{fill:#126082;}.cls-5{fill:#fff;}.cls-6{opacity:0.6;}.cls-7{stroke:#d8d8d8;}</style></defs><title>404</title><g id="图层_2" data-name="图层 2"><g id="图层_1-2" data-name="图层 1"><path class="cls-1" d="M414,79.42H201a7.26,7.26,0,0,0-5.13,12.39,19.31,19.31,0,0,1,0,27.31h0a19.31,19.31,0,0,1-27.31,0l-13.29-13.29a10,10,0,0,0-1.5-1.94L109,59.13a10.23,10.23,0,0,0-13.9-.7A10,10,0,0,0,94.64,73l5.43,5.43L113.41,91.8l17.07,17.07a7.5,7.5,0,0,1,0,10.61h0a7.5,7.5,0,0,1-10.61,0l-1.39-1.61L95.79,95.19a7.71,7.71,0,0,0-10.66-.38A7.5,7.5,0,0,0,85,105.57l13.14,13.14A6.58,6.58,0,0,1,100,123.4v212a44,44,0,0,0,44,44H414a44,44,0,0,0,44-44v-212A44,44,0,0,0,414,79.42ZM153.92,191.3a1.08,1.08,0,0,1,0,2.15h-3.23a1.08,1.08,0,1,1,0-2.15Zm-5.51-1.79,1.62-2.8a1.08,1.08,0,0,1,1.87,1.08l-1.62,2.8a1.08,1.08,0,0,1-1.87-1.08Zm.39,4.27a1.08,1.08,0,0,1,1.47.39l1.62,2.8A1.08,1.08,0,1,1,150,198l-1.62-2.8A1.08,1.08,0,0,1,148.81,193.78Zm-4.31-7.46a1.08,1.08,0,0,1,1.47.39l1.62,2.8a1.08,1.08,0,0,1-1.87,1.08l-1.62-2.8A1.08,1.08,0,0,1,144.5,186.32Zm-3.5,6.06a1.08,1.08,0,0,1,1.08-1.08h3.23a1.08,1.08,0,1,1,0,2.15h-3.23A1.08,1.08,0,0,1,141,192.38Zm3.11,4.59,1.62-2.8a1.08,1.08,0,0,1,1.87,1.08L146,198a1.08,1.08,0,1,1-1.87-1.08ZM150,269.42a6,6,0,1,1,6-6A6,6,0,0,1,150,269.42Zm202-139a7,7,0,1,1,7-7A7,7,0,0,1,352,130.42Zm79.53,8.42a1.62,1.62,0,0,1-2.29,2.29l-2.86-2.86-2.86,2.86a1.62,1.62,0,0,1-2.29-2.29l2.86-2.86-2.86-2.86a1.62,1.62,0,0,1,2.29-2.29l2.86,2.86,2.86-2.86a1.62,1.62,0,0,1,2.29,2.29L428.67,136Z"/><g class="cls-2"><polygon class="cls-3" points="357.29 246.07 196.68 246.07 219.07 199.35 334.9 199.35 357.29 246.07"/><rect class="cls-3" x="196.68" y="246.07" width="160.61" height="70.08"/><path class="cls-3" d="M326.65,249.9"/><path class="cls-3" d="M357.32,202.78"/><path class="cls-3" d="M357.32,202.78"/><path class="cls-3" d="M326.65,249.9"/><path class="cls-3" d="M326.84,249.9"/><path class="cls-3" d="M326.84,249.9"/><rect class="cls-4" x="240.26" y="220.92" width="68.82" height="7.11" rx="3.55" ry="3.55"/><path class="cls-5" d="M295.17,221.22V211.6A41.06,41.06,0,0,1,300.7,191h0a41.06,41.06,0,0,0,5.53-20.58v-12h-41v12A41.06,41.06,0,0,1,259.65,191h0a41.06,41.06,0,0,0-5.53,20.58v9.62"/><polyline class="cls-6" points="271.26 192.27 277.87 200.19 292.73 180.04"/></g><path class="cls-1" d="M42.44,18l3.86-3.86a2.19,2.19,0,0,0-3.09-3.09l-3.86,3.86-3.86-3.86a2.19,2.19,0,0,0-3.09,3.09L36.25,18,32.4,21.88A2.19,2.19,0,0,0,35.49,25l3.86-3.86L43.21,25a2.19,2.19,0,1,0,3.09-3.09Z"/><rect class="cls-1" x="75.69" y="16.83" width="77.31" height="29.7" rx="14.85" ry="14.85" transform="translate(55.89 -71.57) rotate(45)"/><circle class="cls-1" cx="178" cy="18.42" r="7"/><circle class="cls-1" cx="171" cy="88.42" r="7"/><circle class="cls-1" cx="443" cy="56.42" r="7"/><circle class="cls-1" cx="7" cy="56.42" r="7"/><rect class="cls-1" x="467" y="80.04" width="6.92" height="2.77" rx="1.38" ry="1.38"/><rect class="cls-1" x="469.77" y="84.84" width="6.92" height="2.77" rx="1.38" ry="1.38" transform="translate(161.95 452.94) rotate(-60)"/><rect class="cls-1" x="475.31" y="84.84" width="6.92" height="2.77" rx="1.38" ry="1.38" transform="translate(643.48 543.96) rotate(-120)"/><rect class="cls-1" x="478.08" y="80.04" width="6.92" height="2.77" rx="1.38" ry="1.38" transform="translate(963.08 162.85) rotate(180)"/><rect class="cls-1" x="475.31" y="75.24" width="6.92" height="2.77" rx="1.38" ry="1.38" transform="translate(784.52 -299.68) rotate(120)"/><rect class="cls-1" x="469.77" y="75.24" width="6.92" height="2.77" rx="1.38" ry="1.38" transform="translate(302.98 -371.52) rotate(60)"/><line class="cls-7" x1="247" y1="386.42" x2="511" y2="386.42"/><line class="cls-7" x1="220" y1="386.42" x2="234" y2="386.42"/><line class="cls-7" x1="136" y1="408.42" x2="400" y2="408.42"/><line class="cls-7" x1="416" y1="408.42" x2="423" y2="408.42"/><line class="cls-7" x1="48" y1="386.42" x2="209" y2="386.42"/></g></g></svg>