<svg xmlns="http://www.w3.org/2000/svg" viewBox="0 0 216 212.27"><defs><style>.cls-1,.cls-4{fill:none;stroke-linecap:round;}.cls-1,.cls-3,.cls-4{stroke:#0685cc;stroke-linejoin:round;stroke-width:8px;}.cls-2{fill:#126082;}.cls-3{fill:#fff;}.cls-4{opacity:0.6;}</style></defs><title>创建投票</title><g id="图层_2" data-name="图层 2"><g id="图层_1-2" data-name="图层 1"><polygon class="cls-1" points="212 117.51 4 117.51 32.99 57 183.01 57 212 117.51"/><rect class="cls-1" x="4" y="117.51" width="208" height="90.76"/><path class="cls-1" d="M172.33,122.47"/><path class="cls-1" d="M212,61.44"/><path class="cls-1" d="M212,61.44"/><path class="cls-1" d="M172.33,122.47"/><path class="cls-1" d="M172.57,122.47"/><path class="cls-1" d="M172.57,122.47"/><rect class="cls-2" x="60.44" y="84.93" width="89.12" height="9.2" rx="4.6" ry="4.6"/><path class="cls-3" d="M131.56,85.33V72.86a53.18,53.18,0,0,1,7.16-26.65h0a53.18,53.18,0,0,0,7.16-26.65V4H92.71V19.55a53.18,53.18,0,0,1-7.16,26.65h0A53.18,53.18,0,0,0,78.4,72.86V85.33"/><polyline class="cls-4" points="100.59 47.83 109.14 58.1 128.4 32"/></g></g></svg>