<svg xmlns="http://www.w3.org/2000/svg" viewBox="0 0 515 412.42"><defs><style>.cls-1{fill:#d8d8d8;}.cls-2,.cls-4,.cls-5{fill:none;stroke-linecap:round;stroke-linejoin:round;stroke-width:8px;}.cls-2{stroke:#d8d8d8;}.cls-3{opacity:0.5;}.cls-4,.cls-5{stroke:#0685cc;}.cls-5{opacity:0.6;}</style></defs><title>无投票</title><g id="图层_2" data-name="图层 2"><g id="图层_1-2" data-name="图层 1"><path class="cls-1" d="M42.44,18l3.86-3.86a2.19,2.19,0,0,0-3.09-3.09l-3.86,3.86-3.86-3.86a2.19,2.19,0,0,0-3.09,3.09L36.25,18,32.4,21.88A2.19,2.19,0,0,0,35.49,25l3.86-3.86L43.21,25a2.19,2.19,0,1,0,3.09-3.09Z"/><rect class="cls-1" x="75.69" y="16.83" width="77.31" height="29.7" rx="14.85" ry="14.85" transform="translate(55.89 -71.57) rotate(45)"/><circle class="cls-1" cx="178" cy="18.42" r="7"/><circle class="cls-1" cx="171" cy="88.42" r="7"/><circle class="cls-1" cx="443" cy="56.42" r="7"/><circle class="cls-1" cx="7" cy="56.42" r="7"/><path class="cls-1" d="M414,79.42H201a7.26,7.26,0,0,0-5.13,12.39,19.31,19.31,0,0,1,0,27.31h0a19.31,19.31,0,0,1-27.31,0l-13.29-13.29a10,10,0,0,0-1.5-1.94L109,59.13a10.23,10.23,0,0,0-13.9-.7A10,10,0,0,0,94.64,73l5.43,5.43L113.41,91.8l17.07,17.07a7.5,7.5,0,0,1,0,10.61h0a7.5,7.5,0,0,1-10.61,0l-1.39-1.61L95.79,95.19a7.71,7.71,0,0,0-10.66-.38A7.5,7.5,0,0,0,85,105.57l13.14,13.14A6.58,6.58,0,0,1,100,123.4v212a44,44,0,0,0,44,44H414a44,44,0,0,0,44-44v-212A44,44,0,0,0,414,79.42ZM153.92,191.3a1.08,1.08,0,0,1,0,2.15h-3.23a1.08,1.08,0,1,1,0-2.15Zm-5.51-1.79,1.62-2.8a1.08,1.08,0,0,1,1.87,1.08l-1.62,2.8a1.08,1.08,0,0,1-1.87-1.08Zm.39,4.27a1.08,1.08,0,0,1,1.47.39l1.62,2.8A1.08,1.08,0,1,1,150,198l-1.62-2.8A1.08,1.08,0,0,1,148.81,193.78Zm-4.31-7.46a1.08,1.08,0,0,1,1.47.39l1.62,2.8a1.08,1.08,0,0,1-1.87,1.08l-1.62-2.8A1.08,1.08,0,0,1,144.5,186.32Zm-3.5,6.06a1.08,1.08,0,0,1,1.08-1.08h3.23a1.08,1.08,0,1,1,0,2.15h-3.23A1.08,1.08,0,0,1,141,192.38Zm3.11,4.59,1.62-2.8a1.08,1.08,0,0,1,1.87,1.08L146,198a1.08,1.08,0,1,1-1.87-1.08ZM150,269.42a6,6,0,1,1,6-6A6,6,0,0,1,150,269.42Zm202-139a7,7,0,1,1,7-7A7,7,0,0,1,352,130.42Zm79.53,8.42a1.62,1.62,0,0,1-2.29,2.29l-2.86-2.86-2.86,2.86a1.62,1.62,0,0,1-2.29-2.29l2.86-2.86-2.86-2.86a1.62,1.62,0,0,1,2.29-2.29l2.86,2.86,2.86-2.86a1.62,1.62,0,0,1,2.29,2.29L428.67,136Z"/><rect class="cls-1" x="467" y="80.04" width="6.92" height="2.77" rx="1.38" ry="1.38"/><rect class="cls-1" x="469.77" y="84.84" width="6.92" height="2.77" rx="1.38" ry="1.38" transform="translate(161.95 452.94) rotate(-60)"/><rect class="cls-1" x="475.31" y="84.84" width="6.92" height="2.77" rx="1.38" ry="1.38" transform="matrix(-0.5, -0.87, 0.87, -0.5, 643.48, 543.96)"/><rect class="cls-1" x="478.08" y="80.04" width="6.92" height="2.77" rx="1.38" ry="1.38" transform="translate(963.08 162.85) rotate(180)"/><rect class="cls-1" x="475.31" y="75.24" width="6.92" height="2.77" rx="1.38" ry="1.38" transform="translate(784.52 -299.68) rotate(120)"/><rect class="cls-1" x="469.77" y="75.24" width="6.92" height="2.77" rx="1.38" ry="1.38" transform="translate(302.98 -371.52) rotate(60)"/><line class="cls-2" x1="247" y1="386.42" x2="511" y2="386.42"/><line class="cls-2" x1="220" y1="386.42" x2="234" y2="386.42"/><line class="cls-2" x1="136" y1="408.42" x2="400" y2="408.42"/><line class="cls-2" x1="416" y1="408.42" x2="423" y2="408.42"/><line class="cls-2" x1="48" y1="386.42" x2="209" y2="386.42"/><g class="cls-3"><path class="cls-4" d="M253.2,165.68a25.83,25.83,0,0,1-34.89,35.94v104.8H334.88V165.68Z"/><circle class="cls-4" cx="231.23" cy="179.26" r="25.83"/><line class="cls-4" x1="231.23" y1="182.57" x2="219.97" y2="189.19"/><line class="cls-4" x1="231.23" y1="182.57" x2="238.51" y2="167.33"/><line class="cls-5" x1="268.98" y1="185.88" x2="318.65" y2="185.88"/><line class="cls-5" x1="260.37" y1="203.1" x2="318.65" y2="203.1"/><line class="cls-5" x1="231.23" y1="220.32" x2="318.65" y2="220.32"/><line class="cls-5" x1="231.23" y1="237.54" x2="318.65" y2="237.54"/><line class="cls-5" x1="231.23" y1="254.76" x2="318.65" y2="254.76"/><line class="cls-5" x1="231.23" y1="271.98" x2="318.65" y2="271.98"/><line class="cls-5" x1="231.23" y1="289.2" x2="318.65" y2="289.2"/></g></g></g></svg>